<?xml version="1.0" encoding="utf-8"?>
<!-- Generator: Adobe Illustrator 18.1.1, SVG Export Plug-In . SVG Version: 6.00 Build 0)  -->
<svg version="1.1" id="Layer_1" xmlns="http://www.w3.org/2000/svg" xmlns:xlink="http://www.w3.org/1999/xlink" x="0px" y="0px"
	 viewBox="0 0 200 200" enable-background="new 0 0 200 200" xml:space="preserve">
<g>
	<g>
		<path fill="#D8D8D8" d="M98.2,78.3l-9.5-1c0.4-1.1,1-2.2,1.7-3.1l7.8,0c0.2,0,0.4,0.2,0.4,0.3V78C98.5,78.2,98.4,78.4,98.2,78.3z
			 M99.6,83.4c-2.5-0.2-4.6,1.7-4.8,4.2c-0.2,2.5,1.7,4.6,4.2,4.8c2.5,0.2,4.6-1.7,4.8-4.2C103.9,85.8,102,83.6,99.6,83.4z
			 M176.4,70.4c0,0.2-0.1,0.4-0.1,0.4l-2.1,4.6c-1.7,3.6-2.9,5.2-11.4,6.2l-15.3,1.6c1.6,1.1,2.6,2.8,2.8,4.8c0.2,3.5-2.4,6.6-6,6.9
			c-3.5,0.2-6.6-2.4-6.8-6c-0.1-1.9,0.6-3.6,1.8-4.9l-7.6,0.8c0.6,0.9,1,2,1.1,3.1c0.2,3.5-2.4,6.6-6,6.9c-3.5,0.2-6.6-2.4-6.9-6
			c-0.1-1,0.1-2,0.5-2.9l-4.8,0.5l0,0c-0.9,0.1-1.5,0.8-1.8,1.4c-2.6,5.5-8.1,9.2-14.6,9.2c-6.4,0-12-3.8-14.6-9.2l0,0
			c-0.3-0.5-0.9-1.2-1.7-1.3l0,0L78,85.9c0.4,0.9,0.5,1.9,0.5,2.9c-0.2,3.5-3.3,6.2-6.9,6c-3.5-0.2-6.2-3.3-6-6.9
			c0.1-1.2,0.5-2.2,1.1-3.1l-7.6-0.8c1.2,1.3,1.9,3,1.8,4.9c-0.2,3.5-3.3,6.2-6.8,6c-3.5-0.2-6.2-3.3-6-6.9c0.1-2,1.2-3.8,2.8-4.8
			l-15.3-1.6c-8.6-1-9.7-2.5-11.4-6.2L22,70.7c0,0-0.1-0.2-0.1-0.4c0-0.5,0.4-0.8,0.8-0.8c0.3,0,0.6,0.1,0.7,0.4l2.6,5.5
			c0.8,1.4,2.3,2.2,3.5,2.3l52.5,1.8c0.6-0.1,1-0.5,1.2-1.1c0.7-4.7,3.4-8.7,7.2-11.2c0.2-0.1,0.3-0.3,0.3-0.5
			c0-0.3-0.2-0.5-0.4-0.5l-16.1-3.1c-0.9-0.2-1.1-0.6-1-1c0.1-0.4,0.3-0.7,1.3-0.6c0,0,21.3,2.7,21.3,2.7c0.8,0,1.5-0.7,1.6-1.6
			l0.6-18.7c0-1.3,0.6-1.6,1.1-1.6c0.6,0,1.1,0.3,1.1,1.6l0.6,18.6c0,0.9,0.7,1.7,1.6,1.7c0.1,0,21.3-2.7,21.3-2.7
			c0.9-0.1,1.2,0.2,1.2,0.6c0.1,0.4-0.1,0.8-1,1L108,66.3c-0.2,0-0.4,0.3-0.4,0.5c0,0.2,0.1,0.4,0.3,0.5c3.8,2.4,6.4,6.4,7.2,11
			c0,0.1,0,0.1,0,0.2c0.1,0.6,0.6,1.1,1.2,1.1l52.5-1.8c1.2-0.1,2.7-0.9,3.5-2.3l2.6-5.5c0.1-0.3,0.4-0.4,0.7-0.4
			C176.1,69.6,176.4,69.9,176.4,70.4z M58.5,88.6c0.2-2.2-1.5-4.1-3.7-4.3c-2.2-0.2-4.1,1.5-4.3,3.7c-0.2,2.2,1.5,4.1,3.7,4.3
			C56.4,92.5,58.3,90.8,58.5,88.6z M76.1,88.6c0.2-2.2-1.5-4.1-3.7-4.3c-2.2-0.2-4.1,1.5-4.3,3.7c-0.2,2.2,1.5,4.1,3.7,4.3
			C74,92.5,75.9,90.8,76.1,88.6z M112,80.9c0-7.1-5.7-12.8-12.8-12.8c-7.1,0-12.8,5.7-12.8,12.8s5.7,12.8,12.8,12.8
			C106.2,93.7,112,87.9,112,80.9z M130.3,88c-0.2-2.2-2.1-3.9-4.3-3.7c-2.2,0.2-3.9,2.1-3.7,4.3c0.2,2.2,2.1,3.9,4.3,3.7
			C128.8,92.2,130.4,90.2,130.3,88z M143.6,84.3c-2.2,0.2-3.9,2.1-3.7,4.3c0.2,2.2,2.1,3.9,4.3,3.7c2.2-0.2,3.9-2.1,3.7-4.3
			C147.7,85.8,145.8,84.2,143.6,84.3z M100.2,74.2c-0.2,0-0.4,0.2-0.4,0.3V78c0,0.2,0.2,0.3,0.4,0.3l9.5-1c-0.4-1.1-1-2.2-1.7-3.1
			L100.2,74.2z"/>
	</g>
</g>
</svg>
