<?xml version="1.0" encoding="utf-8"?>
<!-- Generator: Adobe Illustrator 18.1.1, SVG Export Plug-In . SVG Version: 6.00 Build 0)  -->
<svg version="1.1" id="Layer_1" xmlns="http://www.w3.org/2000/svg" xmlns:xlink="http://www.w3.org/1999/xlink" x="0px" y="0px"
	 viewBox="0 0 200 200" enable-background="new 0 0 200 200" xml:space="preserve">
<g>
	<path fill="#FFA600" d="M100.1,49.5c12.9,0,23.5,10.4,23.5,23.2c0,12.8-10.5,23.3-23.5,23.3c-13,0-23.5-10.4-23.5-23.3
		C76.7,59.9,87.2,49.5,100.1,49.5"/>
	<path fill="#FFA600" d="M126.4,64.4l0.2,0.2c28.2-4.8,53.7-19.6,71.8-41.6l0,0c1-1.1,1.5-2.5,1.5-4c0-3.4-2.9-6.1-6.3-6.1
		c-0.4,0-0.7,0-1.1,0.1l-0.2-0.2c-28.3,4.6-53.9,19.2-72.2,41.1l0.3,0.1c2.8,3.1,4.9,6.8,6.2,10.8L126.4,64.4z"/>
	<path fill="#FFA600" d="M7.2,13.1l0.2-0.1c-0.3-0.1-0.7-0.1-1-0.1C2.8,12.9,0,15.6,0,19c0,1.4,0.5,2.8,1.4,3.9l0.1,0.1
		c18,22,43.5,36.8,71.6,41.7l0,0c1.2-4,3.3-7.7,6.2-10.8l0-0.1C61,31.9,35.5,17.3,7.3,12.7L7.2,13.1z"/>
	<path fill="#FFA600" d="M105.9,99.7L105.9,99.7c-2,0.4-4.1,0.6-6.1,0.6c-2.1,0-4.2-0.2-6.3-0.6l-0.2,0.3
		c-4.8,13.1-7.2,26.8-7.2,40.8c0,14.4,2.6,28.7,7.7,42.1l0.1,0.2c0.9,2.5,3.3,4.2,5.9,4.2c2.6,0,5-1.7,5.9-4.2l-0.1-0.2
		c5.1-13.5,7.7-27.7,7.7-42.1c0-13.9-2.4-27.7-7.2-40.8L105.9,99.7z"/>
</g>
</svg>
